<svg width="356" height="25" viewBox="0 0 356 25" fill="none" xmlns="http://www.w3.org/2000/svg">
<path d="M15.6156 12.48V10.16C14.8956 9.72 13.9356 9.52 13.0556 9.52C11.4156 9.52 10.2956 10.68 10.2956 12.36C10.2956 14.12 11.7356 15.04 13.0156 15.04C14.2956 15.04 15.6156 14.24 15.6156 12.48ZM19.4556 8.6V13.12C19.4556 14.12 19.6556 14.72 20.4556 14.72C21.3756 14.72 21.9356 13.6 21.9356 12.36C21.9356 7.36 19.0956 3.76 13.0956 3.76C7.81563 3.76 4.41563 6.96 4.41563 12.24C4.41563 17.52 7.97563 20.96 13.7356 20.96C16.0156 20.96 18.0156 20.52 19.8156 19.56L21.2956 22.24C19.0556 23.96 16.6556 24.56 13.6956 24.56C5.49563 24.56 0.415625 19.72 0.415625 12.24C0.415625 4.68 5.97563 0.12 13.0956 0.12C20.9756 0.12 25.6956 5.16 25.6956 12.36C25.6956 15.12 23.9356 18.52 20.6956 18.52C19.2156 18.52 17.8556 17.84 17.0156 16.92C15.8156 17.92 14.3756 18.64 12.8956 18.64C9.21563 18.64 6.41563 16.2 6.41563 12.36C6.41563 8.44 9.25563 6.04 12.9756 6.04C15.7356 6.04 17.5756 6.8 19.4556 8.6ZM29.2188 1.88H49.2988V6.4H34.2188V10.48H47.7787V15H34.2188V19.4H49.8588V24H29.2188V1.88ZM53.0738 1.88H58.7538L64.5538 10.4H65.9538L71.7538 1.88H77.4338L70.0338 12.36L77.8738 24H72.0738L66.0338 14.88H64.4738L58.4338 24H52.6338L60.5138 12.48L53.0738 1.88ZM80.0984 1.88H103.098V6.36H94.0984V24H89.0984V6.36H80.0984V1.88ZM106.289 1.88H119.329C124.529 1.88 128.449 5.36 128.449 10.56C128.449 13.96 126.769 16.52 124.169 17.92L127.569 24H122.129L119.529 19.08H111.289V24H106.289V1.88ZM111.289 6.44V14.52H119.129C121.689 14.52 123.449 13.12 123.449 10.56C123.449 8 121.689 6.44 119.129 6.44H111.289ZM143.64 6.32L139.52 16.28H149.36L145.36 6.32H143.64ZM140.52 1.88H148.64L158.04 24H152.76L151.32 20.64H137.68L136.24 24H130.88L140.52 1.88ZM161.25 1.88H167.93L175.69 17.92H175.89L183.97 1.88H190.37V24H185.45V8.52H185.21L177.73 24H173.53L166.33 8.52H166.09V24H161.25V1.88ZM194.375 1.88H199.375V24H194.375V1.88ZM203.359 1.88H208.079L221.319 16.76V1.88H226.279V24H221.519L208.279 9.08V24H203.359V1.88ZM230.273 1.88H250.353V6.4H235.273V10.48H248.833V15H235.273V19.4H250.913V24H230.273V1.88ZM276.058 4.64L273.658 8.32C271.058 6.52 268.418 5.8 264.898 5.8C260.578 5.8 259.538 6.92 259.538 8.16C259.538 9.44 260.698 9.76 262.418 9.96L269.058 10.72C273.778 11.28 276.698 13.28 276.698 17.36C276.698 22.32 271.858 24.56 265.218 24.56C260.698 24.56 257.298 23.6 253.778 21L256.138 17.12C259.178 19.24 262.138 20.2 265.778 20.2C269.298 20.2 271.858 19.32 271.858 17.44C271.858 16.24 271.218 15.64 269.338 15.44L261.898 14.6C257.378 14.08 254.618 12.32 254.618 8.2C254.618 3.52 259.258 1.36 264.898 1.36C269.018 1.36 272.618 2.08 276.058 4.64ZM280.273 1.88H294.513C298.513 1.88 301.353 4.2 301.353 7.8C301.353 9.4 300.793 10.76 299.633 11.56C301.673 12.6 302.873 14.4 302.873 17.12C302.873 20.92 299.793 24 295.593 24H280.273V1.88ZM285.273 6.36V10.4H294.673C295.753 10.4 296.473 9.4 296.473 8.4C296.473 7.44 295.953 6.36 294.273 6.36H285.273ZM285.273 14.76V19.48H295.433C297.033 19.48 297.993 18.48 297.993 17.12C297.993 15.68 296.993 14.76 295.553 14.76H285.273ZM310.891 12.96C310.891 17.52 314.131 20.28 318.291 20.28C322.451 20.28 325.691 17.52 325.691 12.96C325.691 8.4 322.451 5.64 318.291 5.64C314.131 5.64 310.891 8.4 310.891 12.96ZM330.691 12.96C330.691 19.92 325.011 24.56 318.291 24.56C311.571 24.56 305.891 19.92 305.891 12.96C305.891 6 311.571 1.36 318.291 1.36C325.011 1.36 330.691 6 330.691 12.96ZM332.794 1.88H355.794V6.36H346.794V24H341.794V6.36H332.794V1.88Z" fill="white"/>
</svg>
