<svg width="367" height="142" viewBox="0 0 367 142" fill="none" xmlns="http://www.w3.org/2000/svg">
<path d="M55.8622 35.84H17.1422V47.68L62.5822 47.36V60H0.582188V0.799999H62.5822L62.6622 13.36H17.1422V23.44H55.8622V35.84ZM118.458 0.799999H137.578L114.218 30.64L137.578 60H118.458L101.978 39.52L85.4978 60H66.2978L89.7378 30.64L66.2978 0.799999H85.4978L101.978 21.44L118.458 0.799999ZM141.257 14.48V0.799999H209.737L141.257 14.48ZM209.737 0.799999V14.56H183.977V60H167.337V14.56H141.257V0.799999H209.737ZM265.249 59.92L248.849 40.8H232.129V59.92H216.129V0.719995H259.409C264.369 0.719995 268.742 1.54666 272.529 3.2C276.369 4.85333 279.329 7.17333 281.409 10.16C283.542 13.0933 284.609 16.5067 284.609 20.4V20.72C284.609 25.7867 283.116 29.9733 280.129 33.28C277.196 36.5867 273.116 38.8 267.889 39.92L285.089 59.92H265.249ZM268.529 20.88C268.529 18.32 268.022 16.4533 267.009 15.28C265.996 14.1067 264.689 13.3867 263.089 13.12C261.489 12.8533 259.222 12.72 256.289 12.72C255.009 12.72 253.916 12.7467 253.009 12.8C248.636 12.9067 241.676 12.96 232.129 12.96V28.56H256.209H256.289C259.222 28.56 261.489 28.4533 263.089 28.24C264.689 27.9733 265.996 27.28 267.009 26.16C268.022 25.04 268.529 23.28 268.529 20.88ZM366.292 60H349.252L343.092 48.64H307.652L301.492 60H284.452L316.612 0.799999H334.212L366.292 60ZM325.412 15.92L314.212 36.48H336.532L325.412 15.92ZM97.2138 80.8V140H80.5738V108.16L65.0538 140H49.2138L32.4938 107.52V140H15.9338V80.8H35.3738L57.0538 124L78.0938 80.8H97.2138ZM121.4 140H104.84V80.8H121.4V140ZM145.619 140H129.059V80.8L145.619 140ZM201.859 140H185.219H201.859ZM185.219 119.92V80.8H201.859V140H185.219L145.619 100.8V140H129.059V80.8H145.619L185.219 119.92ZM264.729 115.84H226.009V127.68L271.449 127.36V140H209.449V80.8H271.449L271.529 93.36H226.009V103.44H264.729V115.84ZM318.685 105.2C324.285 105.2 329.138 105.547 333.245 106.24C337.352 106.933 340.765 108.427 343.485 110.72C346.258 113.013 347.645 116.4 347.645 120.88C347.645 129.093 344.045 134.64 336.845 137.52C329.645 140.4 321.565 141.84 312.605 141.84C303.805 141.84 295.565 140.373 287.885 137.44C280.205 134.453 276.365 128.8 276.365 120.48L293.565 120.32C293.565 123.253 294.685 125.44 296.925 126.88C299.218 128.32 301.698 129.227 304.365 129.6C307.085 129.92 310.018 130.08 313.165 130.08C317.965 130.08 322.098 129.387 325.565 128C329.032 126.613 330.792 124.373 330.845 121.28V121.2C330.845 118.907 329.112 117.44 325.645 116.8C322.232 116.107 318.098 115.76 313.245 115.76H313.165H308.285C301.885 115.76 296.472 115.44 292.045 114.8C287.618 114.107 283.885 112.56 280.845 110.16C277.858 107.707 276.365 104.027 276.365 99.12C276.365 85.7333 288.445 79.04 312.605 79.04C321.192 79.04 329.165 80.5067 336.525 83.44C343.938 86.3733 347.645 92.0267 347.645 100.4H330.605C330.605 97.4133 328.872 95.1467 325.405 93.6C321.938 92.0533 317.725 91.1733 312.765 90.96C307.378 90.96 302.792 91.6 299.005 92.88C295.272 94.16 293.405 96.16 293.405 98.88C293.405 103.147 299.592 105.28 311.965 105.28L318.685 105.2Z" fill="white"/>
</svg>
