<svg width="490" height="212" viewBox="0 0 490 212" fill="none" xmlns="http://www.w3.org/2000/svg">
<path d="M119.862 37.84H81.1422V49.68L126.582 49.36V62H64.5822V2.8H126.582L126.662 15.36H81.1422V25.44H119.862V37.84ZM182.458 2.8H201.578L178.218 32.64L201.578 62H182.458L165.978 41.52L149.498 62H130.298L153.738 32.64L130.298 2.8H149.498L165.978 23.44L182.458 2.8ZM205.257 16.48V2.8H273.737L205.257 16.48ZM273.737 2.8V16.56H247.977V62H231.337V16.56H205.257V2.8H273.737ZM329.249 61.92L312.849 42.8H296.129V61.92H280.129V2.72H323.409C328.369 2.72 332.742 3.54666 336.529 5.2C340.369 6.85333 343.329 9.17333 345.409 12.16C347.542 15.0933 348.609 18.5067 348.609 22.4V22.72C348.609 27.7867 347.116 31.9733 344.129 35.28C341.196 38.5867 337.116 40.8 331.889 41.92L349.089 61.92H329.249ZM332.529 22.88C332.529 20.32 332.022 18.4533 331.009 17.28C329.996 16.1067 328.689 15.3867 327.089 15.12C325.489 14.8533 323.222 14.72 320.289 14.72C319.009 14.72 317.916 14.7467 317.009 14.8C312.636 14.9067 305.676 14.96 296.129 14.96V30.56H320.209H320.289C323.222 30.56 325.489 30.4533 327.089 30.24C328.689 29.9733 329.996 29.28 331.009 28.16C332.022 27.04 332.529 25.28 332.529 22.88ZM430.292 62H413.252L407.092 50.64H371.652L365.492 62H348.452L380.612 2.8H398.212L430.292 62ZM389.412 17.92L378.212 38.48H400.532L389.412 17.92ZM161.214 82.8V142H144.574V110.16L129.054 142H113.214L96.4938 109.52V142H79.9338V82.8H99.3738L121.054 126L142.094 82.8H161.214ZM185.4 142H168.84V82.8H185.4V142ZM209.619 142H193.059V82.8L209.619 142ZM265.859 142H249.219H265.859ZM249.219 121.92V82.8H265.859V142H249.219L209.619 102.8V142H193.059V82.8H209.619L249.219 121.92ZM328.729 117.84H290.009V129.68L335.449 129.36V142H273.449V82.8H335.449L335.529 95.36H290.009V105.44H328.729V117.84ZM382.685 107.2C388.285 107.2 393.138 107.547 397.245 108.24C401.352 108.933 404.765 110.427 407.485 112.72C410.258 115.013 411.645 118.4 411.645 122.88C411.645 131.093 408.045 136.64 400.845 139.52C393.645 142.4 385.565 143.84 376.605 143.84C367.805 143.84 359.565 142.373 351.885 139.44C344.205 136.453 340.365 130.8 340.365 122.48L357.565 122.32C357.565 125.253 358.685 127.44 360.925 128.88C363.218 130.32 365.698 131.227 368.365 131.6C371.085 131.92 374.018 132.08 377.165 132.08C381.965 132.08 386.098 131.387 389.565 130C393.032 128.613 394.792 126.373 394.845 123.28V123.2C394.845 120.907 393.112 119.44 389.645 118.8C386.232 118.107 382.098 117.76 377.245 117.76H377.165H372.285C365.885 117.76 360.472 117.44 356.045 116.8C351.618 116.107 347.885 114.56 344.845 112.16C341.858 109.707 340.365 106.027 340.365 101.12C340.365 87.7333 352.445 81.04 376.605 81.04C385.192 81.04 393.165 82.5067 400.525 85.44C407.938 88.3733 411.645 94.0267 411.645 102.4H394.605C394.605 99.4133 392.872 97.1467 389.405 95.6C385.938 94.0533 381.725 93.1733 376.765 92.96C371.378 92.96 366.792 93.6 363.005 94.88C359.272 96.16 357.405 98.16 357.405 100.88C357.405 105.147 363.592 107.28 375.965 107.28L382.685 107.2Z" fill="white"/>
<path d="M82.6156 178.48V176.16C81.8956 175.72 80.9356 175.52 80.0556 175.52C78.4156 175.52 77.2956 176.68 77.2956 178.36C77.2956 180.12 78.7356 181.04 80.0156 181.04C81.2956 181.04 82.6156 180.24 82.6156 178.48ZM86.4556 174.6V179.12C86.4556 180.12 86.6556 180.72 87.4556 180.72C88.3756 180.72 88.9356 179.6 88.9356 178.36C88.9356 173.36 86.0956 169.76 80.0956 169.76C74.8156 169.76 71.4156 172.96 71.4156 178.24C71.4156 183.52 74.9756 186.96 80.7356 186.96C83.0156 186.96 85.0156 186.52 86.8156 185.56L88.2956 188.24C86.0556 189.96 83.6556 190.56 80.6956 190.56C72.4956 190.56 67.4156 185.72 67.4156 178.24C67.4156 170.68 72.9756 166.12 80.0956 166.12C87.9756 166.12 92.6956 171.16 92.6956 178.36C92.6956 181.12 90.9356 184.52 87.6956 184.52C86.2156 184.52 84.8556 183.84 84.0156 182.92C82.8156 183.92 81.3756 184.64 79.8956 184.64C76.2156 184.64 73.4156 182.2 73.4156 178.36C73.4156 174.44 76.2556 172.04 79.9756 172.04C82.7356 172.04 84.5756 172.8 86.4556 174.6ZM96.2188 167.88H116.299V172.4H101.219V176.48H114.779V181H101.219V185.4H116.859V190H96.2188V167.88ZM120.074 167.88H125.754L131.554 176.4H132.954L138.754 167.88H144.434L137.034 178.36L144.874 190H139.074L133.034 180.88H131.474L125.434 190H119.634L127.514 178.48L120.074 167.88ZM147.098 167.88H170.098V172.36H161.098V190H156.098V172.36H147.098V167.88ZM173.289 167.88H186.329C191.529 167.88 195.449 171.36 195.449 176.56C195.449 179.96 193.769 182.52 191.169 183.92L194.569 190H189.129L186.529 185.08H178.289V190H173.289V167.88ZM178.289 172.44V180.52H186.129C188.689 180.52 190.449 179.12 190.449 176.56C190.449 174 188.689 172.44 186.129 172.44H178.289ZM210.64 172.32L206.52 182.28H216.36L212.36 172.32H210.64ZM207.52 167.88H215.64L225.04 190H219.76L218.32 186.64H204.68L203.24 190H197.88L207.52 167.88ZM228.25 167.88H234.93L242.69 183.92H242.89L250.97 167.88H257.37V190H252.45V174.52H252.21L244.73 190H240.53L233.33 174.52H233.09V190H228.25V167.88ZM261.375 167.88H266.375V190H261.375V167.88ZM270.359 167.88H275.079L288.319 182.76V167.88H293.279V190H288.519L275.279 175.08V190H270.359V167.88ZM297.273 167.88H317.353V172.4H302.273V176.48H315.833V181H302.273V185.4H317.913V190H297.273V167.88ZM343.058 170.64L340.658 174.32C338.058 172.52 335.418 171.8 331.898 171.8C327.578 171.8 326.538 172.92 326.538 174.16C326.538 175.44 327.698 175.76 329.418 175.96L336.058 176.72C340.778 177.28 343.698 179.28 343.698 183.36C343.698 188.32 338.858 190.56 332.218 190.56C327.698 190.56 324.298 189.6 320.778 187L323.138 183.12C326.178 185.24 329.138 186.2 332.778 186.2C336.298 186.2 338.858 185.32 338.858 183.44C338.858 182.24 338.218 181.64 336.338 181.44L328.898 180.6C324.378 180.08 321.618 178.32 321.618 174.2C321.618 169.52 326.258 167.36 331.898 167.36C336.018 167.36 339.618 168.08 343.058 170.64ZM347.273 167.88H361.513C365.513 167.88 368.353 170.2 368.353 173.8C368.353 175.4 367.793 176.76 366.633 177.56C368.673 178.6 369.873 180.4 369.873 183.12C369.873 186.92 366.793 190 362.593 190H347.273V167.88ZM352.273 172.36V176.4H361.673C362.753 176.4 363.473 175.4 363.473 174.4C363.473 173.44 362.953 172.36 361.273 172.36H352.273ZM352.273 180.76V185.48H362.433C364.033 185.48 364.993 184.48 364.993 183.12C364.993 181.68 363.993 180.76 362.553 180.76H352.273ZM377.891 178.96C377.891 183.52 381.131 186.28 385.291 186.28C389.451 186.28 392.691 183.52 392.691 178.96C392.691 174.4 389.451 171.64 385.291 171.64C381.131 171.64 377.891 174.4 377.891 178.96ZM397.691 178.96C397.691 185.92 392.011 190.56 385.291 190.56C378.571 190.56 372.891 185.92 372.891 178.96C372.891 172 378.571 167.36 385.291 167.36C392.011 167.36 397.691 172 397.691 178.96ZM399.794 167.88H422.794V172.36H413.794V190H408.794V172.36H399.794V167.88Z" fill="white"/>
</svg>
