<svg width="500" height="848" viewBox="0 0 500 848" fill="none" xmlns="http://www.w3.org/2000/svg">
<path d="M124.862 37.84H86.1422V49.68L131.582 49.36V62H69.5822V2.8H131.582L131.662 15.36H86.1422V25.44H124.862V37.84ZM187.458 2.8H206.578L183.218 32.64L206.578 62H187.458L170.978 41.52L154.498 62H135.298L158.738 32.64L135.298 2.8H154.498L170.978 23.44L187.458 2.8ZM210.257 16.48V2.8H278.737L210.257 16.48ZM278.737 2.8V16.56H252.977V62H236.337V16.56H210.257V2.8H278.737ZM334.249 61.92L317.849 42.8H301.129V61.92H285.129V2.72H328.409C333.369 2.72 337.742 3.54666 341.529 5.2C345.369 6.85333 348.329 9.17333 350.409 12.16C352.542 15.0933 353.609 18.5067 353.609 22.4V22.72C353.609 27.7867 352.116 31.9733 349.129 35.28C346.196 38.5867 342.116 40.8 336.889 41.92L354.089 61.92H334.249ZM337.529 22.88C337.529 20.32 337.022 18.4533 336.009 17.28C334.996 16.1067 333.689 15.3867 332.089 15.12C330.489 14.8533 328.222 14.72 325.289 14.72C324.009 14.72 322.916 14.7467 322.009 14.8C317.636 14.9067 310.676 14.96 301.129 14.96V30.56H325.209H325.289C328.222 30.56 330.489 30.4533 332.089 30.24C333.689 29.9733 334.996 29.28 336.009 28.16C337.022 27.04 337.529 25.28 337.529 22.88ZM435.292 62H418.252L412.092 50.64H376.652L370.492 62H353.452L385.612 2.8H403.212L435.292 62ZM394.412 17.92L383.212 38.48H405.532L394.412 17.92ZM166.214 82.8V142H149.574V110.16L134.054 142H118.214L101.494 109.52V142H84.9338V82.8H104.374L126.054 126L147.094 82.8H166.214ZM190.4 142H173.84V82.8H190.4V142ZM214.619 142H198.059V82.8L214.619 142ZM270.859 142H254.219H270.859ZM254.219 121.92V82.8H270.859V142H254.219L214.619 102.8V142H198.059V82.8H214.619L254.219 121.92ZM333.729 117.84H295.009V129.68L340.449 129.36V142H278.449V82.8H340.449L340.529 95.36H295.009V105.44H333.729V117.84ZM387.685 107.2C393.285 107.2 398.138 107.547 402.245 108.24C406.352 108.933 409.765 110.427 412.485 112.72C415.258 115.013 416.645 118.4 416.645 122.88C416.645 131.093 413.045 136.64 405.845 139.52C398.645 142.4 390.565 143.84 381.605 143.84C372.805 143.84 364.565 142.373 356.885 139.44C349.205 136.453 345.365 130.8 345.365 122.48L362.565 122.32C362.565 125.253 363.685 127.44 365.925 128.88C368.218 130.32 370.698 131.227 373.365 131.6C376.085 131.92 379.018 132.08 382.165 132.08C386.965 132.08 391.098 131.387 394.565 130C398.032 128.613 399.792 126.373 399.845 123.28V123.2C399.845 120.907 398.112 119.44 394.645 118.8C391.232 118.107 387.098 117.76 382.245 117.76H382.165H377.285C370.885 117.76 365.472 117.44 361.045 116.8C356.618 116.107 352.885 114.56 349.845 112.16C346.858 109.707 345.365 106.027 345.365 101.12C345.365 87.7333 357.445 81.04 381.605 81.04C390.192 81.04 398.165 82.5067 405.525 85.44C412.938 88.3733 416.645 94.0267 416.645 102.4H399.605C399.605 99.4133 397.872 97.1467 394.405 95.6C390.938 94.0533 386.725 93.1733 381.765 92.96C376.378 92.96 371.792 93.6 368.005 94.88C364.272 96.16 362.405 98.16 362.405 100.88C362.405 105.147 368.592 107.28 380.965 107.28L387.685 107.2Z" fill="white"/>
<path d="M87.6156 178.48V176.16C86.8956 175.72 85.9356 175.52 85.0556 175.52C83.4156 175.52 82.2956 176.68 82.2956 178.36C82.2956 180.12 83.7356 181.04 85.0156 181.04C86.2956 181.04 87.6156 180.24 87.6156 178.48ZM91.4556 174.6V179.12C91.4556 180.12 91.6556 180.72 92.4556 180.72C93.3756 180.72 93.9356 179.6 93.9356 178.36C93.9356 173.36 91.0956 169.76 85.0956 169.76C79.8156 169.76 76.4156 172.96 76.4156 178.24C76.4156 183.52 79.9756 186.96 85.7356 186.96C88.0156 186.96 90.0156 186.52 91.8156 185.56L93.2956 188.24C91.0556 189.96 88.6556 190.56 85.6956 190.56C77.4956 190.56 72.4156 185.72 72.4156 178.24C72.4156 170.68 77.9756 166.12 85.0956 166.12C92.9756 166.12 97.6956 171.16 97.6956 178.36C97.6956 181.12 95.9356 184.52 92.6956 184.52C91.2156 184.52 89.8556 183.84 89.0156 182.92C87.8156 183.92 86.3756 184.64 84.8956 184.64C81.2156 184.64 78.4156 182.2 78.4156 178.36C78.4156 174.44 81.2556 172.04 84.9756 172.04C87.7356 172.04 89.5756 172.8 91.4556 174.6ZM101.219 167.88H121.299V172.4H106.219V176.48H119.779V181H106.219V185.4H121.859V190H101.219V167.88ZM125.074 167.88H130.754L136.554 176.4H137.954L143.754 167.88H149.434L142.034 178.36L149.874 190H144.074L138.034 180.88H136.474L130.434 190H124.634L132.514 178.48L125.074 167.88ZM152.098 167.88H175.098V172.36H166.098V190H161.098V172.36H152.098V167.88ZM178.289 167.88H191.329C196.529 167.88 200.449 171.36 200.449 176.56C200.449 179.96 198.769 182.52 196.169 183.92L199.569 190H194.129L191.529 185.08H183.289V190H178.289V167.88ZM183.289 172.44V180.52H191.129C193.689 180.52 195.449 179.12 195.449 176.56C195.449 174 193.689 172.44 191.129 172.44H183.289ZM215.64 172.32L211.52 182.28H221.36L217.36 172.32H215.64ZM212.52 167.88H220.64L230.04 190H224.76L223.32 186.64H209.68L208.24 190H202.88L212.52 167.88ZM233.25 167.88H239.93L247.69 183.92H247.89L255.97 167.88H262.37V190H257.45V174.52H257.21L249.73 190H245.53L238.33 174.52H238.09V190H233.25V167.88ZM266.375 167.88H271.375V190H266.375V167.88ZM275.359 167.88H280.079L293.319 182.76V167.88H298.279V190H293.519L280.279 175.08V190H275.359V167.88ZM302.273 167.88H322.353V172.4H307.273V176.48H320.833V181H307.273V185.4H322.913V190H302.273V167.88ZM348.058 170.64L345.658 174.32C343.058 172.52 340.418 171.8 336.898 171.8C332.578 171.8 331.538 172.92 331.538 174.16C331.538 175.44 332.698 175.76 334.418 175.96L341.058 176.72C345.778 177.28 348.698 179.28 348.698 183.36C348.698 188.32 343.858 190.56 337.218 190.56C332.698 190.56 329.298 189.6 325.778 187L328.138 183.12C331.178 185.24 334.138 186.2 337.778 186.2C341.298 186.2 343.858 185.32 343.858 183.44C343.858 182.24 343.218 181.64 341.338 181.44L333.898 180.6C329.378 180.08 326.618 178.32 326.618 174.2C326.618 169.52 331.258 167.36 336.898 167.36C341.018 167.36 344.618 168.08 348.058 170.64ZM352.273 167.88H366.513C370.513 167.88 373.353 170.2 373.353 173.8C373.353 175.4 372.793 176.76 371.633 177.56C373.673 178.6 374.873 180.4 374.873 183.12C374.873 186.92 371.793 190 367.593 190H352.273V167.88ZM357.273 172.36V176.4H366.673C367.753 176.4 368.473 175.4 368.473 174.4C368.473 173.44 367.953 172.36 366.273 172.36H357.273ZM357.273 180.76V185.48H367.433C369.033 185.48 369.993 184.48 369.993 183.12C369.993 181.68 368.993 180.76 367.553 180.76H357.273ZM382.891 178.96C382.891 183.52 386.131 186.28 390.291 186.28C394.451 186.28 397.691 183.52 397.691 178.96C397.691 174.4 394.451 171.64 390.291 171.64C386.131 171.64 382.891 174.4 382.891 178.96ZM402.691 178.96C402.691 185.92 397.011 190.56 390.291 190.56C383.571 190.56 377.891 185.92 377.891 178.96C377.891 172 383.571 167.36 390.291 167.36C397.011 167.36 402.691 172 402.691 178.96ZM404.794 167.88H427.794V172.36H418.794V190H413.794V172.36H404.794V167.88Z" fill="white"/>
<path d="M4 276C4 260.536 16.536 248 32 248H468C483.464 248 496 260.536 496 276V712C496 727.464 483.464 740 468 740H32C16.536 740 4 727.464 4 712V276Z" fill="black"/>
<path d="M4 276C4 260.536 16.536 248 32 248H468C483.464 248 496 260.536 496 276V712C496 727.464 483.464 740 468 740H32C16.536 740 4 727.464 4 712V276Z" stroke="white" stroke-width="8"/>
<rect y="776" width="500" height="72" rx="36" fill="white"/>
<path d="M22.6891 797.456H48.8491V824H42.8491V802.784H28.6411V824H22.6891V797.456ZM59.2426 810.752C59.2426 816.224 63.1306 819.536 68.1226 819.536C73.1146 819.536 77.0026 816.224 77.0026 810.752C77.0026 805.28 73.1146 801.968 68.1226 801.968C63.1306 801.968 59.2426 805.28 59.2426 810.752ZM83.0026 810.752C83.0026 819.104 76.1866 824.672 68.1226 824.672C60.0586 824.672 53.2426 819.104 53.2426 810.752C53.2426 802.4 60.0586 796.832 68.1226 796.832C76.1866 796.832 83.0026 802.4 83.0026 810.752ZM93.9147 797.456H115.083V824H109.083V802.832H98.9067L96.2187 817.232C95.3547 821.936 92.4267 824 88.0587 824H84.8907V818.528H87.7707C89.1627 818.528 90.0747 817.904 90.3627 816.464L93.9147 797.456ZM118.469 797.456H124.661L128.501 808.64C128.837 809.6 129.605 810.08 130.565 810.08H137.909L142.085 797.456H148.181L141.125 818.48C140.021 821.696 137.045 824 133.541 824H126.053V818.912H133.253C134.309 818.912 135.317 818.336 135.701 817.232L136.277 815.408H130.277C126.341 815.408 123.989 813.584 122.741 809.936L118.469 797.456ZM151.736 797.456H157.736V807.344C157.736 811.04 159.656 812.864 163.112 812.864H171.656V797.456H177.656V824H171.656V818.288H162.2C155.96 818.288 151.736 814.112 151.736 807.872V797.456ZM182.58 797.456H188.532V815.888L204.324 797.456H210.132V824H204.18V805.664L188.436 824H182.58V797.456ZM213.963 797.456H241.563V802.832H230.763V824H224.763V802.832H213.963V797.456ZM245.392 797.456H251.392V803.504H260.56C266.8 803.504 271.504 807.344 271.504 813.584C271.504 819.824 266.8 824 260.56 824H245.392V797.456ZM251.392 808.832V818.528H260.128C263.68 818.528 265.504 816.848 265.504 813.584C265.504 810.32 263.68 808.832 260.128 808.832H251.392ZM317.106 803.936L312.45 806.624C310.434 803.744 307.794 802.16 303.57 802.16C298.242 802.16 294.786 805.52 294.786 810.752C294.786 815.888 298.386 819.344 303.57 819.344C307.794 819.344 310.434 817.76 312.45 814.88L317.106 817.568C314.37 822.224 309.858 824.672 303.666 824.672C295.17 824.672 288.834 819.344 288.834 810.752C288.834 802.16 295.314 796.832 303.666 796.832C309.858 796.832 314.37 799.28 317.106 803.936ZM321.33 797.456H327.282V815.888L343.074 797.456H348.882V824H342.93V805.664L327.186 824H321.33V797.456ZM353.673 797.456H378.153V802.88H359.673V824H353.673V797.456ZM381.939 797.456H387.939V807.584H402.915V797.456H408.915V824H402.915V812.96H387.939V824H381.939V797.456ZM428.072 802.784L423.128 814.736H434.936L430.136 802.784H428.072ZM424.328 797.456H434.072L445.352 824H439.016L437.288 819.968H420.92L419.192 824H412.76L424.328 797.456ZM456.165 797.456H477.333V824H471.333V802.832H461.157L458.469 817.232C457.605 821.936 454.677 824 450.309 824H447.141V818.528H450.021C451.413 818.528 452.325 817.904 452.613 816.464L456.165 797.456Z" fill="black"/>
</svg>
